<?xml version="1.0" encoding="utf-8"?>
<!-- Generator: Adobe Illustrator 22.1.0, SVG Export Plug-In . SVG Version: 6.00 Build 0)  -->
<svg version="1.1" id="Livello_1" xmlns="http://www.w3.org/2000/svg" xmlns:xlink="http://www.w3.org/1999/xlink" x="0px" y="0px"
	 viewBox="0 0 33 33" style="enable-background:new 0 0 33 33;" xml:space="preserve">
<path d="M22,20.4c-0.8,0-1.1,0.2-1.4,0.6c-0.7,1-1.3,3.5-4,3.5c-2.3,0-3.2-1.2-3.3-5.1l2.6-1c5.8-2.3,7.8-4.3,7.8-6.4
	c0-1.9-1.4-3.5-3.8-3.5c-2.2,0-5.4,3.4-6.3,4.8c0.1-0.8,0.1-1.7,0.1-2.5c0-1.4-0.6-2.2-1.8-2.2c-1.2,0-3.2,1.8-3.7,2.5
	c-0.2,0.2,0.2,0.5,0.4,0.2c0.3-0.7,1-1.7,1.7-1.7c0.7,0,0.9,0.9,0.9,2.6c0,1.2-0.2,4.7-0.2,6.8c0,4.1,2.2,5.7,5.3,5.7
	c2.2-0.2,4.3-0.9,6.1-2.1c0.6-0.3,1-0.8,1.1-1.5C23.3,20.6,22.9,20.4,22,20.4z M13.3,18.4c0-2.6,0.2-4.1,0.2-4.5
	c0.2-1,3.1-4.1,4.8-4.1c1.7,0,3.1,1.3,3.2,3c0,2.3-1.1,3.3-5.7,5.2l-2.5,1.1V18.4z"/>
</svg>
