<svg xmlns="http://www.w3.org/2000/svg" viewBox="0 0 50 24"><defs><style>.cls-1{fill:#fff;}</style></defs><title>next-arrow</title><g id="Livello_2" data-name="Livello 2"><g id="next-arrow"><path class="cls-1" d="M12,0H50a0,0,0,0,1,0,0V24a0,0,0,0,1,0,0H12A12,12,0,0,1,0,12v0A12,12,0,0,1,12,0Z"/><path d="M30.76,16.17a14.67,14.67,0,0,1,3.38-3.4H16.72V11.18H34a12.66,12.66,0,0,1-1.61-1.45A13.65,13.65,0,0,1,29.6,5.59h1.87a10.64,10.64,0,0,0,1.27,2.27,13.51,13.51,0,0,0,4,3.74v.8A13.75,13.75,0,0,0,34.61,14a12.21,12.21,0,0,0-3.22,4.43H29.55A9.24,9.24,0,0,1,30.76,16.17Z"/></g></g></svg>