<svg xmlns="http://www.w3.org/2000/svg" viewBox="0 0 50 24"><defs><style>.cls-1{fill:#fff;}</style></defs><title>prev-arrow</title><g id="Livello_2" data-name="Livello 2"><g id="prev-arrow"><path class="cls-1" d="M12,0H50a0,0,0,0,1,0,0V24a0,0,0,0,1,0,0H12A12,12,0,0,1,0,12v0A12,12,0,0,1,12,0Z" transform="translate(50 24) rotate(180)"/><path d="M17,14.05a13,13,0,0,1,2.93,4.19H18A8.73,8.73,0,0,0,16.72,16a13.77,13.77,0,0,0-4-3.77v-.79a11.08,11.08,0,0,0,2.08-1.59,11.55,11.55,0,0,0,3.17-4.43h1.84A9.86,9.86,0,0,1,18.6,7.66,14.47,14.47,0,0,1,15.35,11H32.69v1.58H15.3A11,11,0,0,1,17,14.05Z"/></g></g></svg>