<svg version="1.0" xmlns="http://www.w3.org/2000/svg"
 width="2134.000000pt" height="2134.000000pt" viewBox="0 0 2134.000000 2134.000000"
 preserveAspectRatio="xMidYMid meet">
<g transform="translate(0.000000,2134.000000) scale(0.100000,-0.100000)"
fill="#000000" stroke="none">
<path d="M10165 21243 c-2351 -121 -4511 -969 -6310 -2477 -425 -356 -925
-856 -1281 -1281 -1189 -1419 -1967 -3059 -2308 -4865 -116 -613 -165 -1133
-173 -1817 -6 -489 2 -719 38 -1108 245 -2681 1491 -5144 3514 -6946 1061
-945 2316 -1671 3670 -2124 754 -253 1526 -417 2319 -495 395 -38 536 -44
1036 -45 574 0 860 17 1360 81 1436 182 2822 663 4085 1417 355 212 834 545
1165 810 508 408 1035 918 1451 1407 938 1101 1648 2392 2062 3750 251 823
380 1529 449 2455 17 225 17 1102 0 1330 -94 1278 -354 2368 -833 3499 -103
243 -335 717 -469 956 -711 1277 -1648 2367 -2799 3259 -584 452 -1295 889
-1941 1191 -1268 594 -2563 921 -3959 1000 -164 9 -918 11 -1076 3z m3265
-5262 c1017 -151 1724 -696 2019 -1555 143 -415 170 -902 71 -1302 -77 -315
-221 -618 -428 -904 -218 -299 -521 -607 -885 -898 -812 -649 -2063 -1317
-3662 -1955 -239 -95 -1941 -754 -2039 -790 l-29 -10 7 -156 c4 -86 11 -219
17 -296 134 -1880 565 -2703 1544 -2949 413 -104 1016 -96 1418 20 629 181
1111 604 1542 1353 42 73 149 274 239 445 229 438 280 518 403 638 76 74 157
122 268 157 145 47 232 56 525 56 213 0 282 -3 351 -18 261 -53 419 -148 491
-295 62 -126 49 -295 -38 -478 -83 -176 -255 -382 -447 -537 -299 -242 -943
-609 -1552 -885 -844 -382 -1624 -613 -2380 -704 -146 -17 -816 -18 -975 0
-921 102 -1582 385 -2094 898 -473 472 -778 1123 -910 1944 -107 661 -104
1232 19 3815 24 512 50 1049 57 1195 16 348 16 1096 0 1315 -51 687 -169 1024
-400 1137 -62 31 -73 33 -172 33 -101 0 -108 -1 -181 -37 -43 -21 -115 -65
-160 -99 -106 -78 -319 -291 -433 -434 -115 -144 -269 -376 -333 -500 -28 -55
-66 -113 -83 -130 -27 -26 -39 -30 -89 -30 -48 0 -64 5 -95 29 -67 51 -84 130
-44 204 47 87 200 264 403 467 669 670 1418 1153 1940 1251 118 22 370 14 495
-15 503 -116 778 -457 876 -1081 47 -306 14 -1656 -53 -2095 -5 -37 2 -29 80
88 480 716 1358 1616 2174 2229 642 483 1242 789 1719 877 60 11 120 22 134
25 14 2 144 3 290 1 199 -3 298 -8 400 -24z"/>
<path d="M11675 15055 c-468 -89 -1029 -421 -1660 -984 -616 -550 -1228 -1306
-1394 -1721 -31 -77 -36 -103 -52 -285 -37 -422 -64 -864 -90 -1460 -6 -137
-13 -618 -16 -1068 l-6 -817 84 36 c113 48 1700 725 2069 881 1994 848 2861
1428 3226 2156 178 354 255 754 241 1246 -6 218 -23 320 -83 501 -241 731
-982 1349 -1799 1501 -148 27 -410 34 -520 14z"/>
</g>
</svg>

