<svg xmlns="http://www.w3.org/2000/svg" viewBox="0 0 36 36" width="33" height="33" preserveAspectRatio="xMidYMid meet"><path d="M18,1.5A16.5,16.5,0,1,0,34.5,18,16.5,16.5,0,0,0,18,1.5Zm.12,25.13c3,0,3.67-2.68,4.38-3.77.31-.44.61-.61,1.53-.61s1.36.27,1.36.78a2.22,2.22,0,0,1-1.19,1.6,13.91,13.91,0,0,1-6.62,2.3c-3.36,0-5.73-1.73-5.73-6.17,0-2.28.27-6.08.27-7.43,0-1.94-.24-2.89-.95-2.89s-1.5,1.16-1.84,1.87c-.17.27-.57,0-.4-.27.51-.78,2.68-2.75,4-2.75s1.94.88,1.94,2.41a23.45,23.45,0,0,1-.14,2.78c.92-1.56,4.48-5.23,6.86-5.23,2.71,0,4.2,1.73,4.2,3.8,0,2.28-2.2,4.52-8.48,7L14.49,21.1C14.66,25.34,15.65,26.63,18.12,26.63Z"/><path d="M23.42,14a3.63,3.63,0,0,0-3.53-3.29c-1.87,0-5,3.39-5.23,4.51,0,.44-.2,2.07-.2,4.89v.71l2.78-1.19C22.23,17.6,23.42,16.55,23.42,14Z"/></svg>